<svg xmlns="http://www.w3.org/2000/svg" viewBox="0 0 800 500" width="800" height="500">
  <rect width="800" height="500" fill="#ffffff"/>
  <!-- Lion -->
  <g transform="translate(220, 260) scale(2.1)">
    <g fill="#9c0001" stroke="#000" stroke-width=".66109">
  <path d="m21.369 29.85c-4.5332-0.61387-5.5248-2.8805-7.0359-4.5332s-2.0777-1.5583-2.0777-4.061c0-2.2194 3.0221-3.5888 1.4638-5.5248s-4.5568-0.11806-2.5971 1.8416c0.40138 0.40138-1.0389 1.0861-0.84997 1.936-0.61387-0.94441-1.4638-1.7-1.4638-2.361 0-0.66109 1.4166-2.1722 0.09444-3.3999-1.3222-1.2277-3.9665 2.1249-2.9277 2.5027 1.0389 0.37777 1.2277 0.51943 1.2277 1.5583 0 1.0389-0.09444 1.7 0.33054 2.5027-1.3222-1.1333-1.2277-1.1805-1.6527-2.1722-0.42498-0.99163-1.7472-1.3694-2.8805 0.28333-1.1333 1.6527-1.5111 2.0305-0.66109 2.786 0.84997 0.75553 1.6999-1.0861 2.8805 0.61386 1.1805 1.7 2.1249 4.7693 0.61387 4.3915-1.5111-0.37777-2.4555 0.18887-1.8416 2.2194 0.61387 2.0305 2.3138 1.3694 3.211 0.89719s0.94442-0.61387 2.361 0.0472c1.4166 0.66108 2.8805 1.8888 9.1136 12.466 6.2331 10.577 5.572-11.239 2.6916-11.994z"/>
  <path d="m36.126 62.08c-4.911 4.3679-10.884-2.5263-14.379-0.25972 1.9597 0.56666 2.5175 2.1931-0.52097 2.1931-6.2439 0-4.3741 2.9383-7.8467 5.4092 2.1036-0.23373 2.6216-0.78753 3.0385-1.3022 0.55143 2.883-1.6027 2.137-0.60102 6.4109 0.60102-1.97 1.6361-2.1036 1.6361-2.1036 0.83475 7.446 4.6928 8.4258 4.1738 12.855 1.5026-1.4692 1.7363 2.2371-1.1686 2.8048s-5.6095 0.50085-7.279-1.1019c-1.6695-1.6027-5.2756 1.8031-2.8048 2.0368 2.4709 0.23373 2.3039 1.0351 3.7397 1.202-1.5359 0.40069-2.0201 1.3857-3.6562 0.15025-1.6361-1.2354-3.8566 2.6211-1.8198 3.2889 2.0368 0.66781 2.8215-1.0518 5.1922-1.4358-1.5193 1.1186-1.1854 2.2872-2.6378 1.9366-1.4525-0.35059-3.5393 0.18365-1.8198 2.137 1.7196 1.9533 2.955 0.40068 3.8065-0.23373 0.85145-0.63441 1.3361-0.47941 1.8031-1.3356-0.43456 0.88198-2.7881 1.7196-1.4024 3.0719s3.3557 1.3857 3.9567-0.83476c0.60102-2.2204 0.80136-3.5394 3.7564-3.5394 2.955 0 5.3257 1.3022 5.3257-1.1186s0.52344-3.233 1.9873-2.4657c-0.69651-1.6881 0.20069-2.6208-0.62567-3.6832 0.63748 0.28332 0.99164 0.82636 0.99164 0.82636 1.0861-2.361-0.66109-5.1471-1.3222-5.5484 1.1569-0.75553 1.818-0.73192 1.818-0.73192-1.6999-0.42498-3.5652-3.6832-3.9193-5.8318-0.14166-0.87358 1.8888 0.0236 3.4943 1.2513 1.6055 1.2278 8.3108 2.9441 10.581-0.52845 2.2705-3.4726-0.6524-15.353-3.4983-13.52z"/>
  <path d="m49.277 40.15c-3.5416 7.3664-4.7221 8.547-4.486 12.561 0.2361 4.0138 6.5165 7.1776 8.4053 11.947 1.8888 4.7693 6.7526 5.9498 7.0359 0.0472 0.28332-5.9026-9.8219-9.3497-9.8219-16.669 0-7.3192 6.7964-10.88 8.122-13.694 0.28095 1.676-0.21892 2.2761-0.51943 3.211 0 0 14.119-5.997 12.419-12.702 1.1333 1.0625 1.4166 2.4083 1.4166 3.0694 0.54304-0.6847 3.7777-5.8554 0.09444-10.152-3.6832-4.2971-6.8942-0.61387-6.8942 1.8416 0 2.4555 4.3443 2.5499 4.3443 0.94441 0-1.2215-1.4681-1.1247-1.936 0-0.89719-1.6055 1.7472-4.1554 3.3054-2.4082 1.5583 1.7472 1.6055 5.0998-1.4638 5.0998-1.5 0-5.1346-0.0352-5.5248-4.8637-2.3182 4.6997 4.2971 5.3077 4.2971 8.5942 0 3.9193-3.9665 5.0998-4.2026 1.6527 0.70831 0.56665 2.8805-0.99163 0.89719-3.1638-1.9833-2.1722-2.6849-3.4276-2.9277-5.0054-2.104 2.808 6.0443 9.0664-4.1554 13.883 2.5971-2.8805 3.2811-5.8572 2.8805-8.0275 0 0-1.2277 2.2194-2.7388 1.936 2.6444-5.4776 0.60438-9.168 5.997-13.458-2.2469 0.16539-3.3869 1.6156-6.0915 0.61387 2.2079-0.41214 4.206-1.7314 6.1859-2.2666-5.8554-1.936-7.0359-8.6414-0.47221-10.53-3.0221 3.636-1.8888 5.8554-0.70831 7.2248 0.04722-2.9749 1.8416-3.0694 2.5499-2.9749-1.5111 2.1249-1.6527 3.5888 1.5583 5.1943s3.3999 2.2666 3.3999 2.2666 1.275-2.0777 2.5971-1.5111c-0.42499 0.56665-1.2041 1.0152-0.66109 1.9124 0.54304 0.89719 10.152 12.537-3.7777 20.14 2.2194-0.42498 3.3527 0.51943 3.3527 0.51943s-3.3527 0.37777-5.6193 2.0305c4.6749 0.8972 5.6459-0.0425 7.697-1.5583-2.1158 4.9892-9.4914 3.211-12.513 5.0998 4.061 0.51942 4.9582 3.8721 8.3108 2.361-4.6705 6.3367-8.4525-3.9665-14.213 0.0472 3.7777-0.14167 4.3443 1.1805 5.2415 1.4638-1.7472 0.84998-8.5942-0.7083-7.5553 4.3915 1.5111-1.5583 3.3054-1.8888 3.3054-1.8888s-3.0221 3.1638-0.80275 5.2415c2.2194 2.0777 6.1859 5.0998 6.5165 7.3192 0.80275-1.5583 1.8888-2.6444 1.8888-2.6444s0 3.6832-0.51943 8.3581c-0.51943 4.6748-5.7845 9.9636-11.309 4.8165 0.40138-1.6291-0.49582-4.4387-0.96803-4.9582 2.1249 3.6832-0.42498 8.0747-0.09444 10.577-0.61387-0.56665-0.84998-2.1722-0.84998-2.1722-4.0761 5.8212 1.2066 6.602 5.0526 4.061-0.30051 0.6678-1.3222 2.1249-0.18888 2.0305 1.1333-0.0944 3.8249-0.37776 3.8249 1.4638 0 1.8416-5.5248 7.3192-5.5248 11.286s1.4166 3.7304 0.2361 5.4776 1.0861 4.0138-0.2361 5.0054c-1.3222 0.99164-3.7777-0.14166-3.3527-1.0389 0.42499-0.89719 0.99164-1.7472 0.84997-2.5499-0.14166-0.80275 0.61387-0.94442 0.37777-1.8416-0.6847 0.6847-0.99164 2.3138-1.7472 2.4555-0.75553 0.14166-0.18888 3.0693-1.936 3.211-1.7472 0.14166-3.8249-2.786-2.361-3.1166 1.4638-0.33054 1.2277-0.61387 2.0305-2.0305s-0.09444-0.14166-1.1805 0.33055-0.80275 1.7944-1.7472 1.7944-2.7388-2.7388-1.4166-3.5888c1.3222-0.84998 2.361-0.51943 3.211-1.275 1.0503-0.33815 1.4662-0.37392 1.6999-0.99164-0.45077 0.13356-1.6527 1.1333-2.9277 1.3222-1.275 0.18888-0.75553-4.061 0.42498-4.061 1.1805 0 1.0389 1.6999 2.3138 1.2277 1.275-0.4722 3.6832-6.4692 3.3527-7.7442-0.33054-1.275-1.8888-0.0473-1.8416 0.7083-0.61387-0.18888-3.9665-0.7083-4.7693-1.1805 0.2361 0.99164 1.4638 1.5583 1.4638 1.5583-2.8805 0.49582-4.8165-1.4638-4.7693-2.9277-0.70831 2.2666-1.3222 0.425-3.211 2.4555 0.37776-3.4943-2.0305-5.336-2.0305-5.336s0.09444 3.0221-2.3138 4.6748c-0.37777-4.911-4.9582-9.3497-0.2361-12.466-2.1249-0.42498-2.1722-1.8416-2.1722-1.8416s9.2553-1.9361 7.697-7.9803c0.61387 2.9277-1.275 4.7221-1.275 4.7221s-1.6527-4.4388-4.0138-5.9498c-2.361-1.5111-3.7777-3.4943-3.7777-3.4943s-0.14166 2.6444 0.42499 3.1638c-2.4083-1.275-2.4083-5.0526-2.4083-5.0526s0.09445 3.3999-1.0861 4.1082c0-2.7388-1.7944-5.6665-1.7944-5.6665s0.33054 2.7388-0.18888 3.211c-0.18888-1.9833-4.5332-7.0831-5.3359-9.0664-0.80275-1.9833-2.7388-8.0275-1.3694-9.1608s11.38-8.1692 14.638-6.6109c3.2582 1.5583 19.502 0.33055 16.622 6.9887z"/>
  <path d="m14.168 49.47c-2.243-0.14167-2.4083-0.28333-2.8332-0.70831 0.40138 1.1805-1.0152 3.3054-3.2346 1.7944-2.2194-1.5111-3.4707-2.9041-4.486-0.63749-1.0152 2.2666 0.82636 2.8569 1.818 2.6444 0.99164-0.21249 1.393 0.77913 2.7388 0.54304-1.393 0.82636-2.0541 1.4166-4.3443 0.82636-2.2902-0.59027-2.9041 4.061-0.25971 4.2735 2.6444 0.21249 1.3458-1.3222 2.7624-1.8888 1.4166-0.56666 2.5499-1.4874 2.5499-1.4874s-1.275 0.7083-1.2986 2.361c-0.02362 1.6527-2.0069 1.936-1.275 2.8332 0.73192 0.89719 2.5971 1.7236 3.754 0.9208 1.1569-0.80275 0.47221-2.1722 0.2361-2.9513-0.2361-0.77913 0.77914-1.7944 1.9833-1.6763 1.2041 0.11804 1.0861 1.0388 0.02362 1.7944-1.0625 0.75553 3.0457 1.7944 3.9665 0.94441 0.9208-0.84996-1.0152-2.9749 1.1569-3.6596 2.1722-0.6847 3.8249 0.0236 3.8249 0.0236-2.1293-1.565-0.24951-1.5654 1.9597-2.1722 1.7878-0.49104 2.6444-1.7708 5.8554-0.35415 2.5027 0.99164 2.2194 0.56666 2.4083-1.1805 0.18888-1.7472 1.8416-1.7472 2.2194-3.8721 0.37776-2.1249 1.6055-2.7388 1.6055-8.4525s-7.2283-3.191-10.389 0.0472c-3.1602 3.2383-2.4079 5.8087-4.3915 7.1067-3.1398 2.0547-4.1082 3.0694-6.3512 2.9277z"/>
  <path d="m35.617 4.85c0.46746-1.6027-1.97-4.4409-1.97-4.4409s3.3724 0.30051 5.6095 2.8382c2.2037-1.7363 5.0753-2.2705 5.0753-2.2705s-0.73458 1.0685-0.96831 1.7029c3.7731 0.0668 3.3056 0.7012 4.4075 0.7012-1.6361 0.93492-2.0702 1.202-2.0702 1.202 4.4409 1.202 9.2157 6.7782 9.2157 6.7782s-1.8698-0.6678-5.0753-0.0668c6.9117 2.0702 5.4092 5.3591 7.5128 7.3124-3.8733-0.90153-5.0419-1.9032-6.4109-1.0351 2.8382 0.6678 4.0736 3.3724 4.0736 3.3724s-0.50085-0.36729-0.80136-0.43407c0.50085 0.60101 3.5394 9.416 0.06678 13.823 0.30051-3.7397-2.2037-4.7748-2.2037-4.7748s0.63441 7.3458-0.6678 9.1489c-0.15025-0.58432-0.50085-1.3189-0.73458-1.5359 0 0 0.23373 4.0736-1.97 5.5428-0.16695-4.5411-1.1353-4.9751-1.6027-5.2422-4.1905 6.0937-5.0419 6.3274-6.678 8.0804 0.70119-3.3056 0.53424-4.7748 0.16695-5.3758-3.1721 3.2388-0.50085 4.1404-4.7748 7.7799 0.16695-3.94-0.73458-5.0419-0.73458-5.0419s0.26712 2.4041-1.7029 4.0068c-0.3339-4.4743-0.96831-5.476-0.53424-8.1806-1.8031 2.2372-2.137 3.1053-2.137 3.1053-0.21249-1.1097 0.50085-3.3724 0.10017-4.1738-0.86814 3.2054-3.2054 3.8399-3.2054 3.8399s1.202-3.8732 0.46746-5.309c-2.1036 2.738-1.1061 4.9854-5.049 6.4729 0.73192-1.6055 0.77914-3.0221 0.77914-3.0221s-2.6208 3.7068-3.1402 5.7373c-0.57168-1.9775 0.2361-3.8721 0.2361-3.8721-0.50085 0.3506-2.3846 2.3374-2.786 4.2263-1.0152-3.1874-0.54304-4.9346-0.54304-4.9346s-0.63867 0.27522-1.4402 0.96802c0.89719-3.5416 1.8416-4.486 2.3846-5.4068-1.5347 0.82637-2.1249 1.5819-2.6916 2.0541-0.33054-1.8652 0.86418-6.163 4.8042-7.4653-1.9032-2.0034-2.1704-3.339-2.137-4.708 1.8365 2.3707 3.6061 3.0051 4.6412 2.0034s1.9032-0.93492 3.2054-2.3373c1.3022-1.4024 3.1387-1.1353 4.5077-2.3373s4.1028-3.7841 3.6778-5.6729c-0.38314 0.8804-1.0247 0.37846-0.8684 1.3839-0.68124-0.24617-0.79885 0.0631-0.6944 0.71002-0.74616-0.2703-0.43918 0.37841-0.77463 0.24344-1.4638-0.56666-2.3374 1.0625-2.7624 2.0541-0.42499 0.99164-1.0152 0.8972-2.3138 0.37777s-0.92081-1.0389-0.4486-1.3222c0.4722-0.28332-0.37777-1.3458-0.37777-1.7 0.61387 0.42499 1.7472 0.11806 2.0541-0.11805-2.9513-1.9833-6.0206-1.3458-5.3123 1.5583-1.5819-0.42498-1.2513-2.0069-1.2513-2.0069s-4.6985 0.99164-4.5568-3.9429c1.5583 2.7624 4.6512 2.8332 6.2095 2.2666 1.5583-0.56665 3.9085 0.19762 5.7437 1.2814 0.48604 0.28702 0.58426-0.32604 0.48146-0.56324-0.80649-1.8609-3.2961-4.1688-4.0168-1.5745-0.71858-1.4331-1.3584-0.3241-2.0431-0.84356-0.6847-0.51942-2.6208-2.1722-1.6527-3.6832 0.96802-1.5111 1.4402-0.8972 3.5888-2.6444 2.1485-1.7472 2.7691-2.3348 4.7929-2.5971 0.59281-0.0769 0.65536-1.4316 0.47221-1.7944 1.1879 0.20223 2.361 0.56665 2.361 0.56665s-0.23037-2.2227-2.2609-1.6089c1.3782-1.6365 3.4395-0.45001 4.7272 0.89817z"/>
 </g>
 <g fill="none" stroke="#000" stroke-linecap="round" stroke-width=".66109">
  <path d="m36.716 6.93c1.7708 0.87359 4.6512-3.2818 6.9178 0.28333 2.2666 3.5652-2.0541 4.1554-2.7624 5.5248 0.37777-1.1805-1.1569-2.6916-1.9833-1.936 0.84998-0.77914 1.5583-0.51942 1.5583-0.51942"/>
  <path d="m35.111 10.85c0.49582 1.0152-1.3222 0.92081-1.5111 1.9597-0.18888 1.0389 2.5027 1.9833 2.5027 1.9833"/>
  <path d="m34.993 15.45c0.42499 0.28333 0.9208 1.0625 0.9208 1.0625"/>
  <path d="m30.158 11.32c-0.78467 0.11687-1.5693-1.4191-2.0702-1.7363 0.36729-0.63441 0.38398-1.1019 1.152-1.0852"/>
  <path d="m28.593 10.05c0.86814-0.78467 1.9159-0.80912 2.5169-0.24149"/>
 </g>
 <g fill="#9c0001" stroke="#000" stroke-width=".66109">
  <path d="m51.261 105.58c-1.7697-1.4858-0.90153-4.1571 0.18364-3.1387 1.0852 1.0184-1.6027 1.2688-0.18364 3.1387z"/>
  <path d="m44.883 104.45c-1.4525-2.137 0.3506-4.3407 1.202-3.1053 0.85145 1.2354-1.8532 2.0034-1.202 3.1053z"/>
  <path d="m41.26 100.44c-0.6678-2.5376 1.2855-3.6395 2.0201-2.5043 0.73458 1.1353-2.3874 1.6194-2.0201 2.5043z"/>
  <path d="m41.761 95.5c-1.2855-3.2555 3.6729-4.1738 3.0218-2.3039-0.6511 1.8698-2.6712 0.11687-3.0218 2.3039z"/>
 </g>
 <path d="m23.144 10.87c-0.43217 0.228-0.77231 0.47601-1.2075 1.1554-0.65098 1.0162 0.01166 2.0949 0.72358 2.8515-0.10857-1.0962-0.02504-2.6259 0.48394-4.0068z"/>
 <g fill="#9c0001" stroke="#000" stroke-width=".66109">
  <path d="m8.104 88.39c-0.80136-2.4542 3.5727-3.1554 2.8382-1.1019-0.73458 2.0535-2.137-0.96831-2.8382 1.1019z"/>
  <path d="m6.802 93.15c-2.738-2.0368 2.0869-4.8916 2.4375-2.4542 0.35059 2.4375-3.3557 0.0334-2.4375 2.4542z"/>
  <path d="m8.502 98.85c-2.0423-2.0069 0.59026-4.6394 1.6291-3.4825s-1.7826 1.9006-1.6291 3.4825z"/>
  <path d="m13.554 99.96c-1.3458-1.8062 0.02362-3.8367 0.909-2.9159 0.88539 0.9208-1.0507 1.6645-0.909 2.9159z"/>
  <path d="m4.193 14.44c0.85018-2.7825 4.946-1.347 3.6711-0.0484-1.275 1.2986-1.2392-1.6515-3.6711 0.0484z"/>
  <path d="m10.508 14.63c1.6528-0.88483 2.8715 1.0184 1.7363 1.4358-1.1353 0.41738-0.20034-1.0685-1.7363-1.4358z"/>
  <path d="m0.474 18.84c0.46746-3.0886 4.2739-2.0034 3.2889-0.65111-0.98501 1.3523-1.2855-1.3022-3.2889 0.65111z"/>
  <path d="m2.694 26.85c0.37776 3.211 2.9041 2.2194 2.6444 1.2277-0.25971-0.99163-1.0861 0.14166-2.6444-1.2277z"/>
  <path d="m2.245 52.68c-1.4875-2.7388 1.9361-4.2971 2.2194-3.0457 0.28332 1.2514-1.9124 0.47221-2.2194 3.0457z"/>
  <path d="m2.458 59.74c-2.1958-2.2666-0.02624-4.4734 0.96802-3.8485 1.4858 0.93394-0.84997 1.6527-0.96802 3.8485z"/>
  <path d="m8.738 63.1c-1.936-0.2361-2.1757-3.1824-0.82636-3.1166 1.9361 0.0945-0.30693 1.5583 0.82636 3.1166z"/>
  <path d="m11.689 59.79c2.0069 1.8416 3.5572-1.1824 2.5027-1.5819-1.5583-0.59028-0.35416 1.5347-2.5027 1.5819z"/>
 </g>
 <g fill="none" stroke="#000" stroke-linecap="round">
  <path d="m32.111 7.22c0.80136 0.60102 1.6695 0.30051 2.2371-0.0668" stroke-width=".66109"/>
  <path d="m33.914 9.02c0.56763 0.60101 0.93492 0.76796 1.5359 0.53424" stroke-width=".66109"/>
  <path d="m37.507 8.31c0.75553 0.25971 1.4402 0.33055 1.6291 0.89719 0.09445-0.54303 0.82636-1.1569 1.4166-0.63748-0.28332-0.70831 0.6847-1.1805 1.6763-0.80274" stroke-linejoin="round" stroke-width=".52887"/>
 </g>
  </g>
  <!-- Ouroboros -->
  <g transform="translate(580, 258) scale(0.27)">
    
<g transform="translate(7.5,607.5) scale(0.6,-0.6)">
<path fill="rgb(235,235,235)" d="M604,24
c231,47,396,246,396,476
c0,276,-224,500,-500,500
c-276,0,-500,-224,-500,-500
c0,-217,146,-408,358,-470
c5,-1,7,-2,12,-2
c18,0,33,-13,53,-13
c10,0,35,3,45,3
c30,0,74,-18,104,-18
c13,0,28,10,32,24Z
M342,136
c-150,62,-247,205,-247,364
c0,224,181,405,405,405
c224,0,405,-181,405,-405
c0,-172,-110,-324,-273,-380
c1,18,-22,29,-48,29
c-14,0,-27,-5,-34,-5
c-10,0,-28,11,-46,11
c-20,0,-54,-8,-84,-13
c-30,-5,-63,-12,-78,-6Z"/>
<path d="M604,24
c231,47,396,246,396,476
c0,276,-224,500,-500,500
c-276,0,-500,-224,-500,-500
c0,-217,146,-408,358,-470
c5,-1,7,-2,12,-2
c18,0,33,-13,53,-13
c10,0,35,3,45,3
c30,0,74,-18,104,-18
c13,0,28,10,32,24Z
M357,43
c-205,61,-345,247,-345,457
c0,270,218,488,488,488
c270,0,488,-218,488,-488
c0,-231,-170,-428,-403,-468
c-36,-6,-86,16,-86,23
c0,5,21,12,25,14
c239,12,426,201,426,431
c0,249,-201,450,-450,450
c-249,0,-450,-201,-450,-450
c0,-154,83,-298,218,-377
c13,-6,37,-7,47,-7
c10,0,46,2,56,7
c10,5,49,10,69,15
c20,5,47,9,62,9
c25,0,48,-15,56,-14
v2
c0,3,9,5,27,5
c20,0,41,-7,39,-23
l-24,-9
c-20,-6,-29,-5,-39,-9
c-25,-8,-31,-19,-54,-29
c-23,-10,-57,-10,-57,-15
c0,-3,15,-4,25,-5
c25,-3,50,-23,80,-26
c20,-2,25,-1,39,0
c-1,-5,-9,-15,-22,-15
c-32,0,-72,19,-99,19
c-15,0,-26,-6,-41,-6
c-22,0,-47,18,-67,30
c-5,3,-10,6,-15,6
c-5,0,-5,-1,-5,-2
c0,-4,20,-10,20,-13
c0,-2,-3,-1,-8,0Z
M572,92
c200,35,345,207,345,408
c0,230,-187,417,-417,417
c-230,0,-417,-187,-417,-417
c0,-163,100,-311,254,-375
c-24,-3,-52,-1,-65,5
c-133,78,-214,218,-214,370
c0,244,198,442,442,442
c244,0,442,-198,442,-442
c0,-220,-175,-403,-403,-422
c5,2,13,12,33,14Z
M342,136
c-150,62,-247,205,-247,364
c0,224,181,405,405,405
c224,0,405,-181,405,-405
c0,-172,-110,-324,-273,-380
c1,18,-22,29,-48,29
c-14,0,-27,-5,-34,-5
c-10,0,-28,11,-46,11
c-20,0,-54,-8,-84,-13
c-30,-5,-63,-12,-78,-6Z
M446,120
c0,-2,4,-3,14,-3
c15,-1,18,-13,30,-13
c21,0,30,9,37,9
l10,-2
l1,2
c-10,7,-25,17,-35,17
c-5,0,-10,-1,-20,-4
c-15,-4,-37,-4,-37,-6Z
M580,127
c18,-3,17,-9,27,-9
c3,0,5,2,5,5
c0,3,-12,6,-31,7
l-1,-3Z"/>
<path fill="rgb(255,255,255)" d="M472,119
l15,3
c0,-5,3,-10,5,-13
c-9,0,-15,8,-20,10Z
M522,117
l-17,-7
c1,5,1,10,0,15
c8,-2,12,-5,17,-8Z"/>
</g>
  </g>
</svg>